HIERARCHY
ROOT Hips
{
  OFFSET 90.7885 88.945 -76.2838
  CHANNELS 6 Xposition Yposition Zposition Zrotation Xrotation Yrotation
  JOINT LeftUpLeg
  {
    OFFSET 8.64259 1.95398 -2.38835
    CHANNELS 3 Zrotation Xrotation Yrotation
    JOINT LeftLeg
    {
      OFFSET 43.7702 0 0
      CHANNELS 3 Zrotation Xrotation Yrotation
      JOINT LeftFoot
      {
        OFFSET 40.6238 0 0
        CHANNELS 3 Zrotation Xrotation Yrotation
        JOINT LeftToeBase
        {
          OFFSET 12.7242 0 0
          CHANNELS 3 Zrotation Xrotation Yrotation
          End Site
          {
            OFFSET 0 0 0
          }
        }
      }
    }
  }
  JOINT RightUpLeg
  {
    OFFSET -8.2249 1.95398 -2.59336
    CHANNELS 3 Zrotation Xrotation Yrotation
    JOINT RightLeg
    {
      OFFSET 43.5653 0 0
      CHANNELS 3 Zrotation Xrotation Yrotation
      JOINT RightFoot
      {
        OFFSET 40.6238 0 0
        CHANNELS 3 Zrotation Xrotation Yrotation
        JOINT RightToeBase
        {
          OFFSET 12.7242 0 0
          CHANNELS 3 Zrotation Xrotation Yrotation
          End Site
          {
            OFFSET 0 0 0
          }
        }
      }
    }
  }
  JOINT Spine
  {
    OFFSET 0.165834 0.87714 6.61349
    CHANNELS 3 Zrotation Xrotation Yrotation
    JOINT Spine1
    {
      OFFSET 7.38963 1.71661e-005 0
      CHANNELS 3 Zrotation Xrotation Yrotation
      JOINT Spine2
      {
        OFFSET 11.9445 1.14441e-005 0
        CHANNELS 3 Zrotation Xrotation Yrotation
        JOINT Spine3
        {
          OFFSET 14.7254 4.19617e-005 0
          CHANNELS 3 Zrotation Xrotation Yrotation
          JOINT Spine4
          {
            OFFSET 10.9679 0 0
            CHANNELS 3 Zrotation Xrotation Yrotation
            JOINT RightShoulder
            {
              OFFSET 2.46616 -1.6653 3.69651
              CHANNELS 3 Zrotation Xrotation Yrotation
              JOINT RightArm
              {
                OFFSET 13.0012 0 0
                CHANNELS 3 Zrotation Xrotation Yrotation
                JOINT RightForeArm
                {
                  OFFSET 28.7848 1.52588e-005 0
                  CHANNELS 3 Zrotation Xrotation Yrotation
                  JOINT RightHand
                  {
                    OFFSET 26.5688 1.52588e-005 0
                    CHANNELS 3 Zrotation Xrotation Yrotation
                    End Site
                    {
                      OFFSET 0 0 0
                    }
                  }
                }
              }
            }
            JOINT LeftShoulder
            {
              OFFSET 2.38034 -1.29275 -3.7523
              CHANNELS 3 Zrotation Xrotation Yrotation
              JOINT LeftArm
              {
                OFFSET 16.3182 6.10352e-005 0
                CHANNELS 3 Zrotation Xrotation Yrotation
                JOINT LeftForeArm
                {
                  OFFSET 27.0901 0 0
                  CHANNELS 3 Zrotation Xrotation Yrotation
                  JOINT LeftHand
                  {
                    OFFSET 24.5451 1.52588e-005 0
                    CHANNELS 3 Zrotation Xrotation Yrotation
                    End Site
                    {
                      OFFSET 0 0 0
                    }
                  }
                }
              }
            }
            JOINT Neck
            {
              OFFSET 5.0226 -0.0266342 0
              CHANNELS 3 Zrotation Xrotation Yrotation
              JOINT Head
              {
                OFFSET 6.69363 2.86102e-005 0
                CHANNELS 3 Zrotation Xrotation Yrotation
                End Site
                {
                  OFFSET 0 0 0
                }
              }
            }
          }
        }
      }
    }
  }
}
MOTION
Frames:	13
Frame Time:	0.0416667
-91.1566 84.816 -82.5245 -113.892 42.6412 -77.1588 -171.894 28.317 86.999 -67.6283 16.8836 -0.00531434 72.694 6.49973 7.09658 25.5638 4.46375 -5.5891 178.038 29.3128 82.5752 -100.287 -8.30137 -1.93464 75.7217 -9.01315 -5.89108 12.9433 -2.55034 7.13293 0.0661966 9.83255 -89.4875 7.20618 0.353079 0.994463 -4.4651 0.396496 0.977964 -26.9972 0.0378965 1.05459 -6.98457 0.0378898 1.0546 94.8164 -18.0571 -100.616 48.1519 -2.9849 12.5226 -27.1298 -29.2956 -53.6018 -25.0107 -0.86969 -11.3316 -87.609 -35.222 79.2619 -4.70794 5.89986 -12.5914 52.8514 -10.1338 -89.9847 2.14651 -0.386365 -11.8572 2.63813 1.76552 -4.41909 -4.04709 2.42441 1.87727 
-94.7236 84.8676 -86.4583 -111.557 43.5733 -77.7155 -169.589 29.1764 88.7867 -72.0047 19.6726 -0.312274 72.2775 6.39517 9.40126 31.2009 5.2252 -8.55662 176.449 39.8116 85.6302 -94.2556 -4.46008 -1.31883 72.4657 -7.55984 -6.41663 14.0803 -3.31425 8.38459 -0.172692 9.97663 -89.624 6.92049 -0.183895 0.748776 -4.75065 -0.150758 0.756131 -27.2845 -0.40043 0.658903 -7.27184 -0.400416 0.658889 94.9288 -14.5968 -101.658 45.3583 -1.56136 17.3257 -30.1251 -25.9125 -59.3198 -27.7541 -0.78353 -11.0652 -86.5888 -28.1347 79.3684 -3.07631 0.117505 -20.7205 53.0668 -10.8563 -92.0919 2.09776 -0.328469 -10.4635 1.15278 3.2166 -1.98596 -1.48515 3.47877 2.27191 
-97.9331 85.2315 -89.8666 -109.433 41.5205 -78.8654 -167.41 32.0164 89.8103 -76.4917 22.3443 -0.147981 61.9648 1.06167 9.98928 41.7747 8.10758 -17.6708 170.585 45.5871 87.7576 -82.6517 3.71805 0.486576 68.0196 -5.35656 -6.3038 13.3559 -2.48329 6.98403 -0.627778 10.2807 -89.7308 6.31487 -1.14011 0.567679 -5.35577 -1.11402 0.617296 -27.8945 -1.25801 0.198747 -7.8818 -1.258 0.198738 93.9257 -13.0594 -105.074 39.3388 4.52613 22.1667 -29.8558 -21.1312 -65.1722 -30.8845 -0.705323 -9.78935 -85.5352 -20.9628 79.542 -1.65546 -7.12382 -27.2859 53.1789 -9.49398 -92.9109 3.2869 -0.368724 -10.0145 -0.28193 4.35583 -0.859393 1.76079 4.5018 2.70113 
-101.346 85.3284 -93.4417 -108.467 37.7803 -79.7271 -164.648 35.9119 90.4504 -82.7351 25.0673 0.233499 52.4835 -3.83926 8.7184 24.9407 10.5598 -13.8251 165.541 46.3363 86.9866 -68.5303 6.42663 3.44284 63.1196 -2.42614 -4.04785 14.0159 -1.48051 5.2373 -1.06379 10.8122 -89.9122 5.25118 -2.08905 0.213059 -6.41811 -2.07764 0.304822 -28.9664 -2.05646 -0.42491 -8.95377 -2.05645 -0.424918 93.608 -11.1779 -106.931 34.4343 11.8593 22.7981 -30.2708 -19.0703 -71.4574 -36.7386 -1.56397 -5.99661 -84.453 -13.2824 79.571 -6.32036 -12.9028 -35.2228 52.0237 -3.73101 -88.9077 4.20129 -0.439581 -10.4364 1.59476 4.6313 -1.26228 1.08454 4.87744 4.78796 
-104.901 84.7113 -97.4212 -106.488 35.5547 -80.9158 -160.293 41.0127 90.7351 -87.973 16.6142 -0.731373 53.4546 -3.61689 9.36497 26.5045 8.58939 -11.5431 162.995 45.6369 85.5102 -53.9418 0.376757 6.23963 59.3798 -0.253302 -1.35821 16.2542 -2.62379 7.07949 -1.1963 11.0987 -90.1452 4.67287 -2.44974 -0.254321 -6.99577 -2.45852 -0.146201 -29.5471 -2.25997 -0.979166 -9.53446 -2.25997 -0.979171 94.2601 -9.65523 -105.922 33.0926 14.745 15.9974 -33.1179 -19.3796 -76.2747 -47.5991 -2.85913 -3.36852 -84.8294 -10.2493 77.4576 -11.6621 -15.9306 -43.7088 54.6866 3.86713 -82.9102 3.47754 -0.350782 -9.46021 0.79869 4.60242 -0.832324 2.24334 4.84975 5.36206 
-108.391 83.5137 -101.776 -105.039 34.7129 -82.0984 -154.394 46.4033 90.4321 -90.0358 12.6424 -2.57056 60.2914 -0.175197 8.61793 23.7558 8.26405 -10.0951 162.995 44.4665 84.0406 -44.7532 -0.895594 7.00069 59.9341 -0.484685 -1.47911 16.4374 -2.58896 7.01087 -1.21405 11.2774 -90.1936 4.31392 -2.50436 -0.359972 -7.35463 -2.51779 -0.249337 -29.9061 -2.28034 -1.09636 -9.89348 -2.28034 -1.09636 95.4473 -10.3872 -102.086 35.6118 11.3034 0.677433 -33.6547 -17.5797 -77.9197 -49.8774 -4.36514 0.209133 -85.6539 -11.8391 75.9386 -16.3576 -14.6727 -52.894 59.8697 14.298 -76.8704 2.34704 -0.260422 -8.46207 1.09476 4.42123 -0.71243 0.904338 4.57579 4.62218 
-112.084 81.2858 -106.315 -105.026 32.9859 -83.0565 -149.158 50.8168 88.8131 -88.577 19.759 -4.31604 61.0272 0.36501 7.53847 22.7638 8.32884 -9.83294 163.795 44.0274 80.8552 -45.8355 2.92457 6.49139 59.7332 -0.0271825 -1.53008 16.5363 -1.8915 5.70183 -1.23512 11.5967 -90.0469 3.6789 -2.48642 -0.0915677 -7.98967 -2.48804 0.0180187 -30.5424 -2.34391 -0.835028 -10.5297 -2.3439 -0.835028 95.1567 -12.4691 -101.983 37.1101 8.83131 -14.858 -37.8988 -19.693 -76.7125 -46.228 -4.84488 1.35056 -86.7871 -13.3353 73.7223 -19.3613 -12.2788 -60.2199 63.0275 25.6468 -71.1439 2.12798 -0.167323 -6.31164 1.96294 3.55424 -3.38622 1.08736 4.18885 5.88631 
-115.741 78.4074 -110.828 -105.3 32.0856 -84.081 -142.787 54.3168 85.7749 -83.8761 26.4638 -6.96927 57.7373 -1.20317 5.93922 23.7924 8.63442 -10.5935 162.654 49.2367 78.5294 -57.9737 -1.25638 7.28551 61.7955 -0.304597 -5.39164 -0.518432 -0.47103 5.12012 -1.09877 11.8057 -89.9057 3.26274 -2.15745 0.170762 -8.40644 -2.14783 0.265589 -30.9555 -2.10898 -0.485833 -10.9429 -2.10899 -0.485842 94.7667 -12.741 -102.919 37.6648 5.74697 -29.1099 -38.4973 -26.712 -67.9414 -46.4812 -6.25246 4.37322 -88.1295 -16.1081 71.7027 -18.5394 -8.33524 -65.6787 59.7326 36.1566 -63.1344 3.81028 -0.130748 -5.19849 1.98184 2.60119 -3.87283 1.96438 3.34168 5.21971 
-119.468 74.0896 -115.23 -106.968 32.6718 -84.1494 -137.773 57.5339 84.1738 -80.5646 27.9027 -10.0881 60.9047 0.153782 4.03147 20.0958 9.30637 -10.132 159.722 55.8276 78.5136 -74.7778 -4.53008 5.39766 66.7338 -3.62192 -7.9316 8.93205 -1.91395 6.34673 -0.844414 12.1156 -89.7814 2.64463 -1.60086 0.404301 -9.02541 -1.58153 0.474372 -31.5685 -1.64835 -0.0956518 -11.5558 -1.64836 -0.0956588 94.2292 -11.8449 -104.838 35.941 2.97724 -42.6618 -30.8912 -37.4289 -50.6215 -48.9455 -6.84612 4.62311 -89.5449 -20.0681 70.3163 -16.4753 -4.92407 -68.1912 56.0077 41.6496 -58.2382 2.68583 -0.00320633 -2.39316 3.32722 1.79311 -3.78384 1.42484 2.5293 4.47863 
-122.619 70.5909 -119.006 -109.676 34.6106 -79.6447 -137.869 61.6457 88.3201 -77.0428 27.1298 -10.9513 60.338 0.0375002 1.50592 22.8762 6.17743 -7.11249 154.921 57.6193 83.2226 -85.9911 -7.88773 4.25696 68.5467 -4.98282 -9.69571 6.5899 -2.53445 7.42752 -0.28695 12.7139 -90.1046 1.44522 -0.612651 -0.221717 -10.2256 -0.621807 -0.19455 -32.7615 -0.517691 -0.39561 -12.7489 -0.517693 -0.395612 93.1674 -9.25219 -109.339 26.8494 2.98584 -52.2763 -11.3928 -36.1271 -27.7384 -46.0467 -5.48286 3.50249 -91.3947 -24.781 68.5314 -13.4016 -3.92011 -72.2261 50.971 48.2895 -51.6092 0.644937 -0.0564542 -3.1962 7.78697 1.38552 -2.87704 -0.116725 2.01454 3.79673 
-125.965 67.1934 -122.809 -109.831 35.8394 -77.8435 -140.726 65.6912 91.5016 -75.1399 28.1082 -10.8636 61.0864 0.192391 2.05341 23.0239 5.86647 -6.76717 150.513 60.0569 86.9484 -96.1025 -8.54908 3.03625 71.1331 -6.82346 -9.76048 14.6867 -2.76111 7.39422 0.0137533 13.1119 -90.2661 0.649602 -0.0721974 -0.520643 -11.0214 -0.0950542 -0.516965 -33.5558 0.0876027 -0.518276 -13.5432 0.0876049 -0.51828 92.1037 -9.05876 -112.563 14.8761 3.0021 -59.312 3.27892 -33.5466 -12.3529 -40.0816 -5.39382 5.77986 -92.7128 -27.1102 66.9498 -10.2837 -3.53714 -75.4788 39.4947 51.2702 -39.3915 0.653659 -0.0187755 -1.27378 13.45 1.05567 -4.58092 -2.96751 2.1533 4.55222 
-129.139 63.759 -125.934 -107.828 37.6033 -78.1854 -144.265 69.2734 93.3596 -73.5855 30.0624 -10.0342 58.4974 -0.992378 1.92662 23.9526 4.1835 -4.88537 145.508 64.5724 90.8772 -105.216 -10.089 1.62083 72.4712 -7.51587 -9.17273 18.6969 -3.30996 8.23423 0.163882 13.3456 -90.2272 0.182881 0.242628 -0.430259 -11.4881 0.223475 -0.440531 -34.023 0.360718 -0.337459 -14.0104 0.360737 -0.337433 91.7287 -11.6854 -111.86 4.90002 3.38288 -66.0612 8.49864 -28.2169 -5.60388 -33.9378 -3.87893 3.96618 -92.0961 -25.779 67.5612 -8.75822 -2.75285 -78.6261 26.9437 51.8085 -25.7931 -1.02605 -0.0519471 -1.14966 21.4186 0.607537 -7.42449 -8.21917 2.65658 6.54193 
-131.94 60.6119 -128.206 -105.299 39.0085 -78.4392 -145.82 73.537 93.0033 -74.317 29.4723 -9.15625 52.6054 -3.90724 6.21878 9.72441 11.3499 -8.97101 136.083 70.0202 98.2299 -112.824 -12.683 0.302407 68.5968 -5.53293 -9.02048 23.5784 -4.01639 9.5434 0.265489 13.33 -90.397 0.214332 0.382239 -0.754325 -11.4568 0.348673 -0.770421 -33.9912 0.591271 -0.604593 -13.9785 0.591261 -0.604577 90.0622 -12.4627 -115.766 4.5554 5.2245 -63.5517 6.53843 -27.0382 -6.59342 -32.624 -3.61726 3.67029 -93.0985 -27.0247 66.1577 -7.27129 -1.76638 -79.5747 15.8181 50.9678 -13.6186 -0.102168 -0.0352205 -1.57924 22.9871 0.268582 -6.13553 -8.50963 2.07146 4.69042 
